<?xml version="1.0" standalone="no"?>
<!DOCTYPE svg PUBLIC "-//W3C//DTD SVG 20010904//EN"
 "http://www.w3.org/TR/2001/REC-SVG-20010904/DTD/svg10.dtd">
<svg version="1.0" xmlns="http://www.w3.org/2000/svg"
 width="300.000000pt" height="225.000000pt" viewBox="0 0 300.000000 225.000000"
 preserveAspectRatio="xMidYMid meet">
<metadata>
Created by potrace 1.10, written by Peter Selinger 2001-2011
</metadata>
<g transform="translate(0.000000,225.000000) scale(0.100000,-0.100000)"
fill="#000000" stroke="none">
<path d="M40 1130 l0 -1080 1470 0 1470 0 0 1080 0 1080 -1470 0 -1470 0 0
-1080z m2868 -5 l2 -1025 -1400 0 -1400 0 0 1023 c0 563 2 1026 4 1028 2 2
631 3 1398 2 l1393 -3 3 -1025z"/>
<path d="M150 1143 l0 -918 1350 0 1350 0 0 916 0 916 -267 -5 c-148 -2 -270
-6 -272 -8 -2 -2 81 -4 185 -4 289 -1 329 -5 331 -37 1 -30 3 -731 2 -865 -1
-117 -11 -162 -23 -105 -3 12 -7 31 -9 42 -3 11 -5 2 -6 -20 -1 -31 4 -43 26
-61 30 -24 26 -54 -6 -54 -26 0 -18 -26 10 -33 18 -5 28 -46 12 -48 -5 0 -18
-2 -30 -3 -39 -4 -38 -16 0 -16 40 0 49 -17 22 -40 -10 -9 -12 -16 -5 -25 6
-8 6 -15 -2 -23 -9 -9 -9 -12 -1 -12 7 0 11 -25 12 -67 0 -38 1 -79 3 -93 l3
-25 -180 -5 c-204 -6 -183 -19 29 -19 125 0 147 -3 132 -18 -8 -9 -1747 -11
-2271 -3 -342 5 -370 6 -373 23 -2 11 3 17 15 17 13 0 14 3 5 8 -20 13 -22
170 -2 182 13 8 13 10 -2 10 -12 0 -16 8 -15 33 1 17 6 35 12 40 7 4 6 10 -1
15 -14 9 -9 65 6 70 7 3 5 11 -6 23 -9 10 -13 19 -8 20 5 0 152 0 327 -1 310
-1 317 -1 317 19 0 10 -3 27 -6 36 -6 14 -8 13 -18 -7 -10 -20 -19 -23 -66
-23 l-55 0 -3 65 -3 65 66 48 c36 26 70 47 75 47 5 0 11 -41 12 -91 l3 -91 68
-3 c37 -1 70 1 73 6 3 5 -24 9 -60 9 l-66 0 0 101 c0 83 -2 100 -14 96 -14 -6
-70 -41 -113 -73 l-23 -16 0 65 0 65 -70 51 c-38 28 -74 51 -79 51 -15 0 -23
-18 -15 -32 5 -8 10 -6 15 8 7 18 8 18 8 -2 1 -14 21 -35 59 -62 l58 -41 -1
-58 c0 -32 -2 -93 -3 -136 l-2 -78 -67 3 -68 3 -5 167 c-3 91 -8 170 -13 174
-4 4 -7 1 -7 -8 0 -8 -27 -38 -59 -66 l-59 -52 -66 45 c-58 40 -68 44 -86 33
-11 -7 -20 -15 -20 -18 1 -11 145 -99 150 -91 7 10 136 101 144 101 3 0 6 -65
6 -144 l0 -143 -70 1 -69 1 -4 85 -3 85 -2 -87 -2 -88 -64 0 c-42 0 -66 4 -69
13 -4 9 -7 9 -14 -1 -7 -9 -13 -6 -24 14 -12 22 -14 112 -14 520 0 312 4 497
10 503 6 6 128 13 288 17 152 4 276 8 275 9 -2 1 -137 5 -300 9 l-298 7 0
-918z m719 -653 l620 0 0 -121 0 -122 -77 7 c-42 3 -144 8 -227 10 -125 4
-137 3 -71 -4 127 -15 112 -17 -109 -14 -116 2 -210 4 -210 4 0 1 -46 2 -102
3 -57 1 -103 5 -103 10 0 5 -6 5 -13 -1 -14 -12 -381 -11 -393 1 -10 9 6 28
19 21 7 -3 5 1 -5 8 -17 14 -28 101 -15 114 4 4 2 13 -4 21 -9 10 -8 13 0 13
7 0 9 5 4 13 -14 22 -9 32 22 38 16 3 33 4 37 2 4 -2 286 -3 627 -3z m1949
-12 c5 -7 6 -22 2 -33 -4 -11 -5 -39 -2 -62 3 -30 1 -43 -8 -43 -9 0 -9 -4 -2
-12 6 -7 8 -25 5 -40 -6 -32 -35 -38 -59 -13 -18 17 -34 20 -34 5 0 -5 7 -10
17 -10 9 0 13 -3 10 -7 -9 -9 -417 -14 -417 -5 0 4 -14 7 -30 8 -24 1 -28 -1
-19 -12 18 -22 -6 -16 -26 7 l-19 20 -19 -23 -18 -23 7 25 6 25 -21 -23 c-22
-23 -37 -30 -26 -12 6 10 -77 8 -154 -6 -32 -5 -42 -4 -37 4 4 7 23 12 42 12
19 0 34 5 34 11 0 6 -7 8 -16 5 -9 -3 -36 -6 -60 -6 -25 0 -43 -4 -40 -8 2 -4
-55 -9 -127 -10 -73 -1 -145 -5 -161 -8 -21 -5 -26 -3 -21 6 5 8 2 10 -11 7
-11 -3 -38 -9 -61 -12 l-43 -7 -2 34 c0 18 -3 56 -4 83 -2 28 -1 69 2 93 l5
42 648 0 c507 0 651 -3 659 -12z"/>
<path d="M1283 373 c37 -2 96 -2 130 0 34 2 4 3 -68 3 -71 0 -99 -1 -62 -3z"/>
<path d="M897 343 c18 -2 50 -2 70 0 21 2 7 4 -32 4 -38 0 -55 -2 -38 -4z"/>
<path d="M2605 461 c-10 -17 15 -45 29 -31 7 7 5 15 -6 26 -11 11 -18 13 -23
5z"/>
<path d="M2526 281 c14 -13 74 -22 74 -11 0 6 -6 11 -12 11 -7 1 -26 3 -42 5
-16 2 -25 -1 -20 -5z"/>
<path d="M426 1888 c-15 -46 -30 -89 -33 -95 -3 -9 5 -13 26 -13 24 0 31 4 31
20 0 15 7 20 26 20 17 0 28 -6 31 -20 3 -13 14 -20 29 -20 13 0 24 4 24 8 0 5
-13 47 -29 93 -25 71 -33 84 -53 87 -21 3 -26 -5 -52 -80z m64 -19 c0 -11 -7
-19 -16 -19 -11 0 -14 5 -10 16 3 9 6 20 6 25 0 6 5 7 10 4 6 -3 10 -15 10
-26z"/>
<path d="M980 1950 c0 -15 7 -20 25 -20 18 0 25 5 25 20 0 15 -7 20 -25 20
-18 0 -25 -5 -25 -20z"/>
<path d="M1160 1940 c0 -25 4 -30 25 -30 21 0 25 5 25 30 0 25 -4 30 -25 30
-21 0 -25 -5 -25 -30z"/>
<path d="M1439 1875 c31 -80 39 -95 58 -95 16 0 27 9 37 33 l14 32 12 -32 c9
-24 18 -33 35 -33 19 0 27 13 56 88 19 48 36 91 38 95 2 5 -10 7 -25 5 -26 -3
-31 -10 -50 -68 -17 -51 -23 -61 -29 -46 -7 16 -3 36 22 104 3 7 -3 12 -16 12
-16 0 -25 -9 -33 -32 l-12 -33 -8 33 c-6 23 -14 32 -29 32 -18 0 -20 -4 -15
-27 16 -69 18 -103 7 -103 -6 0 -11 5 -11 11 0 6 -7 35 -16 65 -14 49 -18 54
-44 54 l-28 0 37 -95z"/>
<path d="M1840 1875 l0 -95 33 0 c17 0 43 0 57 0 53 -2 80 80 40 120 -23 23
-50 26 -68 8 -9 -9 -12 -4 -12 25 0 33 -3 37 -25 37 -25 0 -25 0 -25 -95z m95
-25 c0 -18 -6 -26 -22 -28 -18 -3 -23 1 -23 21 0 28 9 39 30 35 9 -2 15 -14
15 -28z"/>
<path d="M2140 1950 c0 -15 7 -20 25 -20 18 0 25 5 25 20 0 15 -7 20 -25 20
-18 0 -25 -5 -25 -20z"/>
<path d="M2225 1940 c4 -11 2 -20 -4 -20 -6 0 -11 -9 -11 -20 0 -11 5 -20 11
-20 6 0 10 -15 9 -32 -1 -18 -2 -38 -1 -45 1 -18 35 -33 59 -26 28 7 29 39 2
46 -24 6 -29 57 -5 57 8 0 15 9 15 20 0 11 -7 20 -16 20 -11 0 -14 6 -9 20 5
17 2 20 -25 20 -27 0 -30 -3 -25 -20z"/>
<path d="M587 1909 c-26 -15 -3 -43 23 -29 20 11 50 4 50 -12 0 -5 -9 -6 -20
-3 -27 9 -70 -19 -70 -45 0 -29 37 -51 67 -39 15 6 31 5 43 -1 26 -14 31 -1
24 65 -5 39 -12 59 -25 65 -23 13 -69 12 -92 -1z m73 -78 c0 -6 -5 -13 -10
-16 -15 -9 -43 3 -35 15 8 13 45 13 45 1z"/>
<path d="M730 1850 c0 -68 1 -70 25 -70 22 0 25 4 25 39 0 37 19 68 33 54 4
-3 7 -26 7 -50 0 -39 2 -43 24 -43 23 0 25 5 28 48 2 34 7 47 18 47 11 0 15
-11 13 -47 -1 -47 -1 -48 29 -48 23 0 29 4 24 16 -3 9 -6 38 -6 65 0 57 -15
69 -61 52 -17 -7 -31 -7 -35 -2 -8 13 -48 11 -62 -3 -9 -9 -12 -9 -12 0 0 7
-11 12 -25 12 -24 0 -25 -2 -25 -70z"/>
<path d="M980 1849 c0 -67 1 -69 25 -69 24 0 25 2 25 69 0 66 -1 69 -25 69
-24 0 -25 -3 -25 -69z"/>
<path d="M1054 1850 c0 -69 0 -70 26 -70 25 0 27 3 26 43 -1 36 2 42 22 45 16
3 22 10 22 28 0 26 -18 32 -38 12 -9 -9 -12 -9 -12 0 0 7 -10 12 -22 12 -22 0
-23 -4 -24 -70z"/>
<path d="M1234 1895 c-19 -30 -12 -42 35 -63 27 -12 31 -17 18 -20 -10 -2 -24
1 -31 7 -9 7 -16 7 -24 -1 -19 -19 -14 -27 20 -36 43 -11 76 -4 88 18 15 27 2
48 -36 60 -19 6 -34 16 -34 21 0 12 7 11 30 -1 13 -7 21 -6 30 5 9 11 7 16 -9
24 -34 19 -69 13 -87 -14z"/>
<path d="M1695 1895 c-30 -29 -32 -68 -5 -95 26 -26 80 -30 108 -8 24 20 12
30 -27 23 -24 -4 -42 -2 -46 4 -4 7 11 11 44 11 48 0 51 2 51 25 0 61 -80 86
-125 40z"/>
<path d="M2013 1894 c-16 -26 -16 -27 6 -45 13 -11 29 -19 37 -19 7 0 16 -5
19 -11 5 -6 -6 -9 -31 -7 -48 4 -57 -18 -12 -30 20 -5 44 -5 61 1 23 7 27 15
25 35 -3 24 -21 40 -63 55 -5 3 -7 7 -3 11 3 4 15 3 26 -3 15 -8 23 -7 32 4 9
11 7 16 -9 24 -35 19 -69 13 -88 -15z"/>
<path d="M2140 1849 c0 -67 1 -69 25 -69 24 0 25 2 25 69 0 66 -1 69 -25 69
-24 0 -25 -3 -25 -69z"/>
<path d="M2342 1900 c-28 -26 -29 -80 -3 -104 23 -21 85 -24 106 -6 27 22 17
33 -24 26 -23 -3 -42 -2 -46 4 -4 6 13 10 44 10 45 0 51 3 51 20 0 31 -44 70
-78 70 -15 0 -38 -9 -50 -20z"/>
<path d="M1320 1560 l-305 -5 -5 -325 c-3 -179 -4 -327 -2 -330 6 -8 748 -13
867 -5 l110 7 -3 246 c-2 136 -6 285 -10 332 l-7 85 -170 0 c-93 1 -307 -2
-475 -5z m605 -42 c9 -9 14 -113 16 -343 1 -249 3 -232 -23 -238 -33 -8 -856
-12 -864 -5 -8 8 -6 533 2 565 3 12 13 23 22 25 32 6 841 3 847 -4z"/>
<path d="M2616 1313 c13 -25 24 -54 24 -62 -1 -9 -14 9 -30 39 -20 39 -28 48
-27 30 4 -37 24 -69 60 -90 l32 -20 -38 0 c-23 0 -36 -4 -32 -10 3 -6 -1 -7
-9 -4 -10 4 -16 1 -16 -7 0 -12 -2 -12 -9 0 -5 8 -11 9 -15 3 -13 -22 26 -34
114 -36 49 -1 90 0 90 2 0 13 -33 32 -57 32 -25 1 -26 2 -10 11 19 11 53 9 92
-5 20 -8 20 -7 1 8 -11 9 -28 16 -39 16 -13 0 -17 5 -13 15 4 13 1 12 -22 -2
-21 -13 -20 -9 9 18 20 19 51 47 70 62 51 42 0 14 -67 -37 -61 -46 -74 -49
-74 -15 0 24 -23 71 -43 87 -8 7 -4 -7 9 -35z"/>
<path d="M2470 1301 c0 -4 29 -22 65 -40 36 -19 64 -36 61 -38 -2 -3 -13 0
-24 6 -15 8 -29 7 -57 -5 -45 -18 -42 -27 5 -14 21 6 38 6 43 1 6 -6 19 -5 33
1 24 11 24 11 5 30 -23 21 -131 70 -131 59z"/>
<path d="M2405 1100 c13 -42 24 -70 29 -70 8 0 -15 74 -26 85 -7 7 -8 2 -3
-15z"/>
<path d="M2315 1060 c-3 -6 1 -7 9 -4 9 3 16 2 16 -3 0 -12 46 -34 54 -26 3 3
-11 14 -32 24 -43 22 -39 22 -47 9z"/>
<path d="M2284 1047 c-3 -9 -3 -20 0 -25 3 -5 1 -23 -3 -40 -9 -29 -7 -31 33
-46 49 -19 67 -20 45 -3 -9 7 -17 17 -18 22 -2 6 -7 17 -13 25 -8 12 -9 12 -4
-2 3 -12 0 -18 -9 -18 -11 0 -15 11 -13 45 1 48 -7 69 -18 42z"/>
<path d="M2443 1001 c1 -14 -4 -26 -12 -29 -10 -3 -12 0 -8 11 3 8 0 18 -7 20
-10 4 -12 -1 -9 -14 4 -15 2 -18 -11 -13 -9 3 -16 10 -16 15 0 5 -9 9 -20 9
-23 0 -25 -8 -6 -33 11 -15 31 -18 119 -20 l106 -2 -26 28 c-27 27 -57 35 -68
17 -10 -16 -21 -12 -33 13 l-12 22 3 -24z"/>
<path d="M410 890 c77 -11 128 -12 112 -1 -8 4 -48 8 -90 8 l-77 1 55 -8z"/>
<path d="M2590 868 c0 -5 10 -8 23 -9 24 -1 48 -4 86 -14 22 -6 23 -5 10 11
-9 11 -9 15 -1 10 6 -4 12 -3 12 3 0 5 -27 9 -65 8 -36 -1 -65 -5 -65 -9z"/>
<path d="M1101 848 c-24 -64 -24 -68 2 -68 14 0 28 6 30 13 4 10 6 10 6 0 2
-25 47 -14 61 15 9 19 14 23 18 13 3 -8 0 -17 -6 -19 -7 -2 -12 -8 -12 -13 0
-5 85 -9 200 -9 l200 0 0 23 c0 24 20 62 20 39 0 -7 5 -10 10 -7 6 3 10 13 10
21 0 17 -46 19 -53 2 -4 -10 -6 -10 -6 0 -1 6 -10 12 -21 12 -14 0 -21 -9 -26
-37 -6 -33 -8 -35 -20 -18 -13 17 -14 17 -14 1 0 -9 -4 -14 -10 -11 -14 9 11
44 27 38 7 -3 13 2 13 11 0 24 -97 23 -103 -1 -4 -17 -5 -17 -6 0 -2 29 -37
20 -55 -15 -8 -18 -16 -27 -16 -20 0 21 -20 13 -20 -8 0 -11 -4 -20 -9 -20 -6
0 -6 12 1 31 6 18 16 28 23 25 8 -2 16 2 19 10 8 21 -31 18 -43 -3 -10 -17
-10 -17 -11 0 0 29 -37 20 -52 -13 -15 -34 -23 -37 -32 -14 -9 23 -8 25 10 22
10 -2 19 3 21 10 7 19 -35 14 -46 -5 -10 -17 -10 -17 -11 0 0 20 -36 24 -43 5
-4 -10 -6 -10 -6 0 -2 21 -41 13 -50 -10z m370 -24 c-5 -16 -10 -21 -10 -11
-1 22 -21 23 -21 0 0 -9 -3 -14 -6 -10 -11 11 8 49 22 43 8 -3 14 0 14 6 0 6
2 9 5 7 2 -3 0 -18 -4 -35z"/>
<path d="M1645 840 c-6 -25 -9 -29 -21 -19 -11 9 -14 7 -14 -15 0 -25 2 -26
60 -26 55 0 79 12 48 23 -8 2 -9 8 -4 13 5 5 11 4 13 -3 6 -16 43 -17 43 -1 0
6 8 1 19 -10 18 -22 68 -32 56 -12 -4 6 7 10 25 10 28 0 30 2 24 28 -4 15 -9
30 -11 35 -7 12 -73 8 -73 -5 0 -9 -3 -9 -8 -2 -11 16 -94 18 -103 2 -7 -10
-9 -10 -9 0 0 6 -9 12 -19 12 -13 0 -21 -9 -26 -30z"/>
<path d="M954 826 c-15 -16 -35 -76 -25 -76 9 0 45 80 39 85 -2 2 -8 -2 -14
-9z"/>
<path d="M2227 783 c18 -2 50 -2 70 0 21 2 7 4 -32 4 -38 0 -55 -2 -38 -4z"/>
<path d="M2350 778 c0 -5 51 -7 113 -6 115 1 101 5 -36 10 -42 2 -77 0 -77 -4z"/>
<path d="M2118 753 c18 -2 45 -2 60 0 15 2 0 4 -33 4 -33 0 -45 -2 -27 -4z"/>
<path d="M891 677 c-9 -11 -10 -17 -2 -17 6 0 11 -6 11 -14 0 -8 7 -17 16 -20
28 -11 1171 -7 1154 4 -9 6 -231 10 -575 10 -308 0 -565 4 -571 8 -7 4 -13 16
-15 26 -4 18 -5 18 -18 3z"/>
</g>
</svg>
